<svg>
<symbol version="1.1" viewBox="0 0 128 128" xmlns="http://www.w3.org/2000/svg" id="dermatologia">
<g transform="translate(293.06 189.57)">
  <path d="m-166.68-125.57c0 34.451-27.928 62.379-62.379 62.379s-62.379-27.928-62.379-62.379 27.928-62.379 62.379-62.379 62.379 27.928 62.379 62.379zm-109.61 14.9s23.614-7.4111 30.643 1e-5c4.2928 4.5261-4.6732 13.148-2.074 18.959 1.5617 5.2027 8.0449 9.1544 13.384 10.772 11.784 3.9082 25.839-2.0653 27.231-12.416 1.5888-11.814-6.2658-11.17-3.6768-15.986 0.74855-1.3924 2.8836-1.3954 4.4417-1.6628 8.1828-1.404 4.3504 0.30471 24.903 0.45704m-52.269-0.18901c75.725-119.71 9.066-26.024 14.756 0.58551 19.541 31.664-39.228 27.455-14.756-0.58551z" fill="none" style="paint-order:normal"/>
 </g>
 </symbol>
<symbol version="1.1" viewBox="0 0 128 128" xmlns="http://www.w3.org/2000/svg" id="dietetyka">
 <g transform="translate(248.46 271.97)">
  <path d="m-122.08-207.97c1e-5 34.451-27.928 62.379-62.379 62.379-34.451-2e-5 -62.379-27.928-62.379-62.379 2e-5 -34.451 27.928-62.379 62.379-62.379 34.451-2e-5 62.379 27.928 62.379 62.379zm-62.707-12.39c1.0753-6.2713-1.5181-10.949-3.0497-13.532-8.6085-14.516 19.27-26.37 19.65-12.36 0.18206 6.7179 4.9906 2.44 7.3495 4.1214 3.0114 2.1465 5.7814 6.6006 3.7807 13.669-1.3955 4.9303-11.863 3.0114-14.622 8.3306-3.9199 7.5575-11.617 17.953-13.191 29.271 16.836 17.202 8.1094 26.407-2.8259 27.432-3.8201 0.35817-5.2316-5.9876-8.7829-7.4399-3.4053-1.3926-8.8922 1.1752-11.007-0.81143-6.6935-6.2867-6.7669-14.979 0.0999-18.605 2.3122-1.3203 5.902-2.6164 12.245-5.2312 4.0627-8.3319 8.9082-16.944 10.354-24.844z" fill="none" style="paint-order:normal"/>
 </g>
</symbol>
<symbol version="1.1" viewBox="0 0 128 128" xmlns="http://www.w3.org/2000/svg" id="epizootiologia">
 <g transform="translate(506.24 240.97)">
  <path d="m-379.86-176.97a62.379 62.379 0 0 1-62.379 62.379 62.379 62.379 0 0 1-62.379-62.379 62.379 62.379 0 0 1 62.379-62.379 62.379 62.379 0 0 1 62.379 62.379zm-33.185-23.599 12.465-8.0683m-69.872 49.879-12.92 7.3181m55.574-57.594 1.2831-14.793m-27.697 93.65 1.9427-14.721m10.554-35.839a5.2121 5.2121 0 0 1-5.2122 5.2122 5.2121 5.2121 0 0 1-5.2121-5.2122 5.2121 5.2121 0 0 1 5.2121-5.2121 5.2121 5.2121 0 0 1 5.2122 5.2121zm19.712 2.3418a3.8473 3.8473 0 0 1-3.8473 3.8473 3.8473 3.8473 0 0 1-3.8472-3.8473 3.8473 3.8473 0 0 1 3.8472-3.8472 3.8473 3.8473 0 0 1 3.8473 3.8472zm-8.0292-18.065a3.8473 3.8473 0 0 1-3.8472 3.8473 3.8473 3.8473 0 0 1-3.8473-3.8473 3.8473 3.8473 0 0 1 3.8473-3.8472 3.8473 3.8473 0 0 1 3.8472 3.8472zm-19.571 32.284a3.8473 3.8473 0 0 1-3.8472 3.8472 3.8473 3.8473 0 0 1-3.8473-3.8472 3.8473 3.8473 0 0 1 3.8473-3.8473 3.8473 3.8473 0 0 1 3.8472 3.8473zm40.472 14.254-10.029-10.95m-31.291-44.904-8.2912-12.318m30.577 81.36-8.3898-12.251m39.653-24.564-13.668-5.8025m-62.935 6.212-14.226-4.2559m22.865-14.605-12.367-8.2182m55.717 40.358a26.584 36.566 43.527 0 1-44.458 8.2042 26.584 36.566 43.527 0 1 5.9086-44.821 26.584 36.566 43.527 0 1 44.458-8.2042 26.584 36.566 43.527 0 1-5.9087 44.821z" fill="none" style="paint-order:normal"/>
 </g>
</symbol>
<symbol version="1.1" viewBox="0 0 128 128" xmlns="http://www.w3.org/2000/svg" id="ginekologia">
 <g transform="translate(438.96 272.72)">
  <path d="m-312.58-208.72c0 34.451-27.928 62.379-62.379 62.379-34.451 0-62.379-27.928-62.379-62.379s27.928-62.379 62.379-62.379 62.379 27.928 62.379 62.379zm-57.355-30.218c0.4677-1.1976 1.6115-2.3987 1.4534-3.7209-0.1376-1.1507-1.8552-1.6981-1.9928-2.8487-0.22898-1.9148 0.60524-4.1764 2.1049-5.3889 0.91244-0.73766 2.8465 0.42588 3.4742-0.5654 0.52571-0.83018-0.54404-1.8886-0.81599-2.8327m-16.122 75.166c-0.28725 1.2532-1.2428 2.6089-0.89275 3.8936 0.30464 1.1181 2.0839 1.408 2.3885 2.5262 0.50695 1.8606 0.013 4.22-1.2929 5.639-0.79456 0.86334-2.8782-4e-3 -3.354 1.0682-0.39844 0.89823 0.81479 1.7886 1.2221 2.6827m-21.256-52.841c-1.148-0.57903-2.8014-0.7091-3.5668-1.7987-0.66607-0.94831 0.24671-2.5029-0.41936-3.4512-1.1084-1.5781-3.2398-2.7042-5.1657-2.605-1.1718 0.0604-1.8342 2.2181-2.9634 1.8995-0.94573-0.2668-0.85641-1.769-1.2845-2.6533m72.598 22.133c1.1755 0.52089 2.3241 1.7173 3.652 1.6186 1.1557-0.0859 1.7795-1.7773 2.9352-1.8632 1.9232-0.14297 4.1452 0.79173 5.2892 2.3442 0.69604 0.94457-0.55298 2.8246 0.40919 3.4961 0.8058 0.56237 1.9111-0.45889 2.8664-0.68827m-70.302 4.5438c-1.0063 0.80024-1.8165 2.2475-3.1264 2.4865-1.14 0.20803-2.1699-1.2716-3.3099-1.0636-1.8971 0.34618-3.812 1.8106-4.5279 3.6012-0.43561 1.0895 1.2468 2.5942 0.48483 3.4864-0.63812 0.74724-1.965 0.0374-2.9474 0.0561m21.114-48.212c-0.74616-1.0471-2.1488-1.9323-2.3185-3.253-0.14774-1.1494 1.384-2.0999 1.2363-3.2493-0.24585-1.9127-1.6074-3.902-3.3579-4.7112-1.065-0.49235-2.6562 1.1085-3.5071 0.30066-0.71262-0.67657 0.0661-1.9643 0.0991-2.9462m40.341 64.038c0.50283 1.1833 0.52465 2.8418 1.562 3.6766 0.9028 0.72657 2.5136-0.0827 3.4164 0.64383 1.5023 1.2091 2.4869 3.4094 2.2622 5.3247-0.13674 1.1653-2.3331 1.6854-2.089 2.8331 0.20447 0.96113 1.7093 0.97009 2.5638 1.455m0.23788-59.153c1.1858-0.49704 2.8443-0.51075 3.6842-1.544 0.73098-0.89923-0.0704-2.514 0.66053-3.4132 1.2164-1.4964 3.4215-2.4702 5.3357-2.2361 1.1646 0.14243 1.674 2.3413 2.8228 2.1028 0.96212-0.19977 0.97843-1.7046 1.4676-2.5566m-31.192-3.2565c1.5001 0.58594 1.9494 3.0238 1.0037 5.445s-2.9285 3.9091-4.4286 3.3232c-1.5001-0.58594-1.9495-3.0238-1.0037-5.4451 0.94576-2.4213 2.9285-3.9091 4.4286-3.3232zm-11.677 59.467c-1.5697-0.35991-2.3713-2.7056-1.7904-5.2393s2.3244-4.2959 3.8941-3.936c1.5697 0.35992 2.3713 2.7056 1.7904 5.2393s-2.3244 4.2959-3.8941 3.936zm-23.082-36.812c-0.72516 1.438 0.56852 3.5525 2.8895 4.723 2.321 1.1705 4.7904 0.95366 5.5156-0.48429s-0.56852-3.5525-2.8895-4.723-4.7904-0.95366-5.5156 0.4843zm58.839 13.355c-0.65256 1.4723-3.1081 1.812-5.4846 0.75874s-3.774-3.1007-3.1214-4.573c0.65255-1.4723 3.1081-1.812 5.4846-0.75875 2.3765 1.0533 3.774 3.1007 3.1214 4.573zm-54.873 9.4157c1.0024 1.2604 3.4644 0.97051 5.4988-0.64755 2.0344-1.618 2.871-3.9515 1.8686-5.2119s-3.4643-0.9705-5.4988 0.64755-2.871 3.9515-1.8686 5.2119zm7.7265-39.351c-1.3114 0.93471-1.1515 3.4084 0.35721 5.5252s3.7949 3.0751 5.1064 2.1403c1.3114-0.93472 1.1515-3.4085-0.35723-5.5253-1.5087-2.1168-3.7949-3.075-5.1064-2.1403zm32.307 49.847c-1.4822 0.62972-3.5078-0.79928-4.5242-3.1918s-0.63882-4.8424 0.84342-5.4722 3.5078 0.79928 4.5242 3.1918 0.63882 4.8424-0.84342 5.4722zm7.7766-44.992c0.62247 1.4853-0.81642 3.5039-3.2138 4.5086s-4.8455 0.61513-5.468-0.87016c-0.62247-1.4853 0.81642-3.5039 3.2138-4.5086s4.8455-0.61513 5.468 0.87016zm-6.938 22.061c-1.4647 8.3426-9.4151 13.918-17.758 12.454-8.3426-1.4647-13.918-9.4151-12.454-17.758s9.4151-13.918 17.758-12.454c8.3426 1.4647 13.918 9.4151 12.454 17.758z" fill="none" style="paint-order:normal"/>
 </g>
</symbol>
<symbol version="1.1" viewBox="0 0 128 128" xmlns="http://www.w3.org/2000/svg" id="interna">
 <g transform="translate(-132.54 20.993)">
  <path d="m258.92 43.007a62.379 62.379 0 0 1-62.379 62.379 62.379 62.379 0 0 1-62.379-62.379 62.379 62.379 0 0 1 62.379-62.379 62.379 62.379 0 0 1 62.379 62.379zm-91.371 30.129c0.24203 4.9592-6.0886 8.2968-10.044 5.2981-4.2318-2.6009-3.4108-9.7094 1.2986-11.281 4.0546-1.6971 8.8596 1.5769 8.7455 5.9832zm-1.8826-3.8681c0.37385-0.42144 0.74839-0.8419 1.125-1.2607 2.5265-2.4344 6.3807-8.046 8.6695-5.119 4.0438 6.8767 8.1709 20.297 16.709 19.625 6.6953-0.52241 12.419-5.7662 14.422-13.325 4.8106 0.63607 10.6-1.0939 14.187-5.2015 5.738-6.2242 10.469-13.608 14.608-20.973 4.6159-8.8499 3.3888-19.742-0.70841-28.535-2.1727-4.9616-8.1513-9.0214-13.324-8.673l-0.84914 5.0003c4.3755 1.2803 6.7498 2.2699 8.0754 5.8862 3.1725 7.7802 4.4847 17.114 0.63257 24.903-3.6646 6.7679-8.0778 13.17-13.042 19.051-2.596 3.3421-7.5643 4.1462-11.709 2.4104-4.441-1.154-6.9219-3.6043-8.0746-7.9125-2.114-7.0828-3.7175-14.395-4.2165-21.78-0.22635-8.5043 4.6504-16.317 10.548-22.071 2.6615-2.7841 6.6871-2.3656 9.9949-1.815l0.73563-5.411c-2.8302-1.0553-11.458-0.92017-15.434 2.758-7.2725 6.4199-12.754 15.912-12.064 25.869 0.83753 8.3892 2.4825 17.434 5.1551 25.444 1.494 4.9171 4.9966 8.4663 9.7538 9.6571-1.423 3.7608-3.804 7.8328-8.2264 9.0933-4.2201 0.25175-6.129-3.9779-7.8324-7.0201-3.3294-7.6587-6.226-11.444-7.8244-12.481-4.9812-2.9281-11.403 3.8206-14.688 8.7321" fill="none" style="paint-order:normal"/>
 </g>
</symbol>
<symbol version="1.1" viewBox="0 0 128 128" xmlns="http://www.w3.org/2000/svg" id="laryngologia">
<g transform="translate(327.83 252.31)">
  <path d="m-201.46-188.31c-1e-5 34.451-27.928 62.379-62.379 62.379-34.451-1e-5 -62.379-27.928-62.379-62.379-2e-5 -34.451 27.928-62.379 62.379-62.379 34.451-2e-5 62.379 27.928 62.379 62.379zm-72.628 0.66022c7.3098-5.4185 14.62-10.837 17.565-11.225 2.9449-0.38735 1.5267 4.2569 3.3267 7.3925 1.8 3.1356 6.8182 4.761 4.4732 10.333-2.345 5.5721-12.055 15.093-21.765 24.614m20.924-71.359c-7.2896 5.9561-14.688 12.002-20.985 19.594-6.2964 7.5921-11.544 16.775-13.716 24.362-2.1728 7.5866-1.2702 13.576-0.53862 18.528 0.73175 4.9522 1.2926 8.8674 2.835 12.245 1.5425 3.3773 4.0667 6.216 6.5906 9.0542m-19.355 1.4389c-0.59312-6.5985-2.1181-13.179-1.7793-19.796 1.342-26.208 9.044-35.486 19.621-46.676 11.315-12.137 26.706-19.405 38.021-23.135 8.5352 24.461 13.459 56.694-4.3161 72.927-6.3642 8.1681-15.973 12.389-21.439 15.626" fill="none" style="paint-order:normal"/>
 </g>
</symbol>
<symbol version="1.1" viewBox="0 0 128 128" xmlns="http://www.w3.org/2000/svg" id="okulistyka">
 <g transform="translate(252.63 1167.9)">
  <path d="m-127.29-1103.9a61.344 61.344 0 0 1-61.344 61.344 61.344 61.344 0 0 1-61.344-61.344 61.344 61.344 0 0 1 61.344-61.344 61.344 61.344 0 0 1 61.344 61.344zm-108.15 4.006c4.1635 8.2758 10.066 15.672 17.211 21.569 6.2608 5.1669 13.517 9.2013 21.35 11.329 8.9306 2.4254 18.493 2.3185 27.451 0 8.7168-2.2559 17.039-6.719 22.826-13.616 2.8938-3.4483 5.1215-7.4748 6.3493-11.806 1.2275-4.331 1.44-8.9661 0.45308-13.359-1.1933-5.3193-4.1005-10.152-7.7757-14.178-3.6754-4.0261-8.1052-7.2953-12.704-10.223-6.6544-4.2366-13.772-7.8316-21.35-10.022-8.8864-2.5682-18.387-3.1521-27.451-1.3072-6.0693 1.2351-11.968 3.5778-16.93 7.284-4.9625 3.7064-8.952 8.8244-10.849 14.72-2.1058 6.5483-1.5051 13.923 1.6341 20.044m59.416-16.457a4.554 22.902 0 0 1-4.554 22.902 4.554 22.902 0 0 1-4.5538-22.902 4.554 22.902 0 0 1 4.5538-22.902 4.554 22.902 0 0 1 4.554 22.902z" fill="none" style="paint-order:normal"/>
 </g>
</symbol>
<symbol version="1.1" viewBox="0 0 128 128" xmlns="http://www.w3.org/2000/svg" id="ortopedia">

 <g transform="translate(271.49 18.374)">
  <g transform="matrix(.98808 0 0 .98808 -304.82 55.005)">
   <path d="m95.842 9.7806c-7.1676 5.4574-8.8083 14.892-13.38 22.112-1.1887 1.8805-2.8766 3.8107-5.2917 3.8142-1.9689 0.27578-4.5981-0.8985-4.3738-3.2163 1.0222-4.543 3.8189-8.4169 5.9622-12.483 2.6509-4.7282 5.6137-10.256 5.7313-15.166 0.11758-4.9097-0.87605-9.3708 2.1743-12.892 3.0788-3.3861 8.7232-3.5945 12.475-1.5845 11.556 8.1705 3.8707 13.958-3.2969 19.415zm19.972-62.329c1.1942-1.9997 3.011-3.9768 5.5374-3.9026 2.098-0.27278 4.7036 1.3455 4.0448 3.7168-1.9061 6.5088-6.2814 11.919-8.6844 18.228-1.1835 2.9049-2.0663 5.9358-2.5719 9.0329 1.624 4.9464 2.5655 10.658 0.19296 15.527-0.86702 1.9537-3.453 3.8757-5.4397 2.1842-1.623-1.4474-1.7385-3.9199-3.4804-5.3098-3.0421-3.0887-7.6022-3.6715-11.727-3.5215-2.8732 0.06181-2.7813-3.3494-1.398-5.0029 2.5469-3.9143 6.5402-6.5774 10.619-8.7147 6.0971-6.7103 8.7889-15.507 12.908-22.237zm45.688 43.056c0 34.79-28.203 62.993-62.993 62.993-34.79 0-62.993-28.203-62.993-62.993-3e-6 -34.79 28.203-62.993 62.993-62.993 34.79 1e-6 62.993 28.203 62.993 62.993z" fill="none" style="paint-order:normal"/>
  </g>
 </g>

</symbol>
<symbol version="1.1" viewBox="0 0 128 128" xmlns="http://www.w3.org/2000/svg" id="rozrod">
 <g transform="translate(339.77 202.07)">
  <g transform="translate(3.8234 1.1989)" >
   <g transform="rotate(180.76 -329.5 -84.816)">
    <path d="m-391.04-55.177c0.27097-3.3948 1.4113-6.7124 3.2757-9.53 1.864-2.8176 4.4484-5.1286 7.4226-6.6383 2.9742-1.5097 6.3318-2.2148 9.6447-2.0251 3.3128 0.18961 6.5733 1.2734 9.3656 3.1132 2.7923 1.8398 5.1101 4.4314 6.6577 7.4443 1.5477 3.0129 2.3217 6.4401 2.2234 9.8448-0.0984 3.4046-1.0688 6.7788-2.7876 9.6923-1.7188 2.9135-4.1821 5.3595-7.0757 7.0263-4.1166 2.3713-9.0959 3.118-13.701 2.0547-4.6054-1.0633-8.7938-3.9265-11.525-7.8788m-10.103-13.6c0.36368-4.4382 1.8942-8.7756 4.3963-12.459 2.5021-3.6836 5.9702-6.705 9.9619-8.6788 3.9918-1.9738 8.498-2.8955 12.944-2.6476 4.4462 0.24788 8.822 1.6648 12.57 4.0702 3.7476 2.4053 6.8582 5.7934 8.9354 9.7324 2.0771 3.939 3.116 8.4196 2.984 12.871-0.13212 4.4511-1.4344 8.8624-3.7412 12.671-2.3068 3.809-5.6128 7.0069-9.4963 9.1859-5.5249 3.1001-12.208 4.0763-18.388 2.6863-6.1809-1.3901-11.802-5.1334-15.468-10.3m27.307 13.78c-0.22619 3.398-1.3227 6.7305-3.1497 9.5724-1.827 2.8419-4.3804 5.1868-7.3344 6.7356-2.9541 1.5488-6.3021 2.298-9.6171 2.1521-3.315-0.1459-6.5895-1.1866-9.4058-2.9895-2.8164-1.8028-5.1681-4.3636-6.7553-7.3558-1.5872-2.9922-2.4064-6.409-2.353-9.8146 0.0533-3.4056 0.9793-6.7923 2.6596-9.7282 1.6803-2.9359 4.111-5.4142 6.9824-7.119 4.085-2.4253 9.054-3.2376 13.673-2.2352 4.619 1.0024 8.8448 3.8103 11.628 7.7262m10.281 13.466c-0.30512 4.4426-1.7783 8.7998-4.2316 12.516-2.4534 3.7163-5.8812 6.7831-9.8466 8.8093-3.9654 2.0263-8.4591 3.0073-12.908 2.818-4.449-0.18926-8.8432-1.5484-12.622-3.9041-3.779-2.3557-6.934-5.7025-9.0629-9.6137-2.1289-3.9112-3.2267-8.3778-3.1534-12.83 0.0732-4.4525 1.3174-8.8805 3.5738-12.72 2.2564-3.8391 5.5199-7.0803 9.3743-9.3104 5.4836-3.1727 12.153-4.2369 18.351-2.9285 6.1987 1.3085 11.869 4.9774 15.602 10.096m14.082 1.6143 8.5528 5.0456-2.9982 5.2325 4.6368 3.0075 2.7134-4.8575 5.4581 3.7348 2.9288-4.7728-5.9803-3.8591 2.4356-4.8473-4.6269-3.0067-2.578 5.0366-8.2686-4.8551m-46.212 40.83-7.9099 10.306 5.1512 3.2069-13.813 3.8142-0.39251-12.615 4.943 3.2159 7.3752-9.6093m-42.704-24.088a62.47 62.47 0 0 1 61.641-63.288 62.47 62.47 0 0 1 63.288 61.641 62.47 62.47 0 0 1-61.641 63.288 62.47 62.47 0 0 1-63.288-61.641z" fill="none" />
   </g>
  </g>
 </g>
</symbol>
<symbol version="1.1" viewBox="0 0 128 128" xmlns="http://www.w3.org/2000/svg" id="stomatologia">
 <g transform="translate(42.463 -32.68)">
  <g transform="translate(-140.42 107.91)">
   <path d="m224.33-11.232a62.379 62.379 0 0 1-62.379 62.379 62.379 62.379 0 0 1-62.379-62.379 62.379 62.379 0 0 1 62.379-62.379 62.379 62.379 0 0 1 62.379 62.379zm-51.161-44.413c4.508-1.0618 0.61128 4.0064-1.5928 7.7201-4.8367 8.1491-9.8795 13.657-12.265 21.579-3.1401 10.429 4.12 27.964-2.2228 32.598-3.1753 2.0234-5.3731 0.76329-9.1883-0.38519-2.6151-0.78718-8.258 1.9198-10.248 0.12269-1.9281-5.2922-1.2661-12.282 1.0817-19.66 5.7705-18.134 21.725-38.611 34.435-41.975zm-21.507 88.808c-4.4886 1.1406-0.68135-3.9951 1.4574-7.7468 4.6932-8.2326 9.6388-13.828 11.885-21.791 2.9569-10.482-4.6092-27.888 1.6515-32.632 3.1394-2.0787 5.3589-0.85728 9.1937 0.22414 2.6285 0.74126 8.2232-2.0641 10.244-0.30215 6.9867 18.18-16.636 57.203-34.432 62.247z" fill="none" style="paint-order:normal"/>
  </g>
 </g>
</symbol>
</svg>